<svg xmlns="http://www.w3.org/2000/svg" fill="none" viewBox="0 0 394 80">
  <path fill="#000" d="M262 0h68.5v12.7h-27.2v66.6h-13.6V12.7H262V0ZM149 0v12.7H94v20.4h44.3v12.6H94v21h55v12.6H80.5V0h68.5zm27.8 0h-13.6v79.3h13.6V0zm-58.9 12.7L73.5 0H59.1l-15.9 12.7L46.5 0H32.8l15.9 20.4L32.8 41h13.6l15.9-12.7L78 41h13.6L75.7 20.4 91.6 0H78L62.1 12.7 46.2 0H32.8l15.9 20.4L32.8 41h13.6l15.9-12.7L78 41h13.6L75.7 20.4 91.6 0zM252.5 0h-13.6v79.3h13.6V0z"/>
  <path fill="#fff" d="M0 0h394v80H0z"/>
  <path fill="#000" d="M262 12.7V0h-68.5v79.3h13.6V41h49.9V28.4h-49.9V12.7h55zM149 12.7V0h-68.5v79.3H94V54.7h55V41H94V12.7h55zm27.8 0V0h-13.6v79.3h13.6V12.7zm-58.9 0L73.5 0H59.1l-15.9 12.7L46.5 0H32.8l15.9 20.4L32.8 41h13.6l15.9-12.7L78 41h13.6L75.7 20.4 91.6 0H78L62.1 12.7 46.2 0H32.8l15.9 20.4L32.8 41h13.6l15.9-12.7L78 41h13.6L75.7 20.4 91.6 0zM252.5 0h-13.6v79.3h13.6V0z"/>
</svg>
